<?xml version="1.0" encoding="utf-8"?>
<svg version="1.0" xmlns="http://www.w3.org/2000/svg" x="0px" y="0px" width="13.457px" height="28.34766px" viewBox="0 0 13.457 28.34766">
<path d="M0,1.41795c0-0.78124,0.6406-1.41797,1.41793-1.41797h10.62499c0.77739,0,1.4141,0.63671,1.4141,1.41797v25.51173c0,0.77735-0.63669,1.41797-1.4141,1.41797H1.41793C0.6406,28.34765,0,27.70702,0,26.92968V1.41795z"/>
<linearGradient id="grad1" gradientUnits="userSpaceOnUse" x1="6.73046" y1="1.26953" x2="6.73046" y2="27.07812">
	<stop offset="0" style="stop-color:#3B3B3B"/>
	<stop offset="1" style="stop-color:#242424"/>
</linearGradient>
<path opacity="0.54" fill="url(#grad1)" d="M11.3242,1.26953H2.13671c-0.48326,0-0.87501,0.39176-0.87501,0.87501v24.05857c0,0.48326,0.39176,0.87501,0.87501,0.87501h9.18749c0.48326,0,0.87501-0.39176,0.87501-0.87501V2.14454C12.19921,1.66128,11.80746,1.26953,11.3242,1.26953z"/>
<rect x="0.73033" y="0.80507" opacity="0.3" width="12.00026" height="1.71664"/>
<g>
	<linearGradient id="grad2" gradientUnits="userSpaceOnUse" x1="6.7285" y1="19.5" x2="6.7285" y2="28.34">
		<stop offset="0.00559" style="stop-color:#3D3B3B"/>
		<stop offset="1" style="stop-color:#2D2C2C"/>
	</linearGradient>
	<path fill="url(#grad2)" d="M1.25778,19.5h10.94143v8.84652H1.25778V19.5z"/>
	<path fill="#5E5E5E" d="M1.25778,23.05h10.94143v0.87738H1.25778V23.05z"/>
	<path fill="#5E5E5E" d="M1.25778,26.6h10.94143v0.87738H1.25778V26.6z"/>
	<path fill="#5E5E5E" d="M1.25778,24.82h10.94143v0.87738H1.25778V24.82z"/>
	<path fill="#5E5E5E" d="M1.25778,21.27h10.94143v0.87738H1.25778V21.27z"/>
	<path fill="#797979" d="M1.25778,19.5h10.94143v0.87738H1.25778V19.5z"/>
</g>
</svg>
